<?xml version="1.0" encoding="iso-8859-1"?>
<!-- Generator: Adobe Illustrator 19.0.0, SVG Export Plug-In . SVG Version: 6.00 Build 0)  -->
<svg version="1.1" id="Layer_1" xmlns="http://www.w3.org/2000/svg" xmlns:xlink="http://www.w3.org/1999/xlink" x="0px" y="0px"
	 viewBox="0 0 511.999 511.999" style="enable-background:new 0 0 511.999 511.999;" xml:space="preserve">
<path style="fill:#D770AD;" d="M437.332,181.328C437.332,81.188,356.145,0,255.98,0C155.855,0,74.668,81.188,74.668,181.328
	c0,5.891,4.75,10.672,10.656,10.672c5.875,0,10.656-4.781,10.656-10.672c0-21.609,4.25-42.562,12.562-62.266
	c8.062-19.062,19.594-36.172,34.312-50.875c14.688-14.703,31.812-26.234,50.875-34.297c19.688-8.328,40.656-12.562,62.25-12.562
	c21.633,0,42.57,4.234,62.289,12.562c19.062,8.062,36.156,19.594,50.875,34.297c14.688,14.703,26.219,31.812,34.281,50.875
	c8.344,19.703,12.562,40.656,12.562,62.266s-4.219,42.562-12.562,62.281c-8.062,19.047-19.594,36.156-34.281,50.859
	c-14.719,14.703-31.812,26.234-50.875,34.297c-19.719,8.344-40.656,12.562-62.289,12.562h-10.656v160
	c0,5.891,4.781,10.672,10.656,10.672c5.914,0,10.695-4.781,10.695-10.672V362.125C361.801,356.562,437.332,277.875,437.332,181.328z
	"/>
<path style="fill:#EC87C0;" d="M330.676,426.656H181.324c-5.906,0-10.656,4.781-10.656,10.672S175.418,448,181.324,448h149.352
	c5.875,0,10.656-4.781,10.656-10.672S336.551,426.656,330.676,426.656z" />
</svg>
