<?xml version="1.0" encoding="iso-8859-1"?>
<!-- Generator: Adobe Illustrator 19.0.0, SVG Export Plug-In . SVG Version: 6.00 Build 0)  -->
<svg version="1.1" id="Layer_1" xmlns="http://www.w3.org/2000/svg" xmlns:xlink="http://www.w3.org/1999/xlink" x="0px" y="0px"
	 viewBox="0 0 512 512" style="enable-background:new 0 0 512 512;" xml:space="preserve">
<path style="fill:#DA4453;" d="M239.09,128l90.492-90.508c4.188-4.172,4.188-10.922,0-15.086c-4.156-4.164-10.906-4.164-15.062,0
	l-79.852,79.844V10.664C234.668,4.773,229.887,0,223.996,0S213.34,4.773,213.34,10.664v263.773h21.328V153.75l79.852,79.844
	c4.156,4.164,10.906,4.164,15.062,0c4.188-4.164,4.188-10.914,0-15.086L239.09,128z"/>
<path style="fill:#ED5565;" d="M255.996,256.016c-70.688,0-127.984,57.297-127.984,127.984s57.297,128,127.984,128
	c70.68,0,127.992-57.312,127.992-128S326.676,256.016,255.996,256.016z M331.426,459.438c-20.156,20.125-46.938,31.219-75.43,31.219
	c-28.484,0-55.266-11.094-75.422-31.219C160.434,439.281,149.34,412.5,149.34,384c0-28.484,11.094-55.266,31.234-75.406
	c20.156-20.156,46.938-31.25,75.422-31.25c28.492,0,55.273,11.094,75.43,31.25c20.125,20.141,31.219,46.922,31.219,75.406
	C362.645,412.5,351.551,439.281,331.426,459.438z"/>
</svg>
