<?xml version="1.0" encoding="iso-8859-1"?>
<!-- Generator: Adobe Illustrator 19.0.0, SVG Export Plug-In . SVG Version: 6.00 Build 0)  -->
<svg version="1.1" id="Layer_1" xmlns="http://www.w3.org/2000/svg" xmlns:xlink="http://www.w3.org/1999/xlink" x="0px" y="0px"
	 viewBox="0 0 512.008 512.008" style="enable-background:new 0 0 512.008 512.008;" xml:space="preserve">
<polygon style="fill:#4A89DC;" points="502.195,245.34 266.664,245.34 266.664,8.34 245.344,8.34 245.344,245.34 9.813,245.34
	9.813,266.66 245.344,266.66 245.344,500.723 266.664,500.723 266.664,266.66 502.195,266.66 "/>
<path style="fill:#5D9CEC;" d="M256,0.004c-141.375,0-256,114.617-256,256c0,141.375,114.625,256,256,256
	c141.383,0,256.008-114.625,256.008-256C512.008,114.621,397.383,0.004,256,0.004z M421.945,421.942
	c-21.562,21.562-46.656,38.469-74.594,50.297c-28.938,12.234-59.656,18.422-91.352,18.422c-31.688,0-62.406-6.188-91.328-18.422
	c-27.938-11.828-53.047-28.734-74.594-50.297c-21.562-21.562-38.484-46.656-50.297-74.594
	c-12.233-28.938-18.436-59.656-18.436-91.344s6.203-62.422,18.438-91.336c11.812-27.945,28.734-53.039,50.297-74.602
	c21.547-21.555,46.656-38.477,74.594-50.297c28.922-12.234,59.641-18.43,91.328-18.43c31.695,0,62.414,6.195,91.352,18.43
	c27.938,11.82,53.031,28.742,74.594,50.297c21.562,21.562,38.469,46.656,50.312,74.602c12.219,28.914,18.406,59.648,18.406,91.336
	s-6.188,62.406-18.406,91.344C460.414,375.285,443.508,400.379,421.945,421.942z"/>
</svg>
