<?xml version="1.0" encoding="iso-8859-1"?>
<!-- Generator: Adobe Illustrator 19.0.0, SVG Export Plug-In . SVG Version: 6.00 Build 0)  -->
<svg version="1.1" id="Layer_1" xmlns="http://www.w3.org/2000/svg" xmlns:xlink="http://www.w3.org/1999/xlink" x="0px" y="0px"
	 viewBox="0 0 512 512" style="enable-background:new 0 0 512 512;" xml:space="preserve">
<path style="fill:#E9573F;" d="M351.996,0c-5.875,0-10.656,4.773-10.656,10.664v490.68c0,5.875,4.781,10.656,10.656,10.656
	c5.906,0,10.656-4.781,10.656-10.656V10.664C362.652,4.773,357.902,0,351.996,0z"/>
<path style="fill:#FC6E51;" d="M458.652,405.344H127.176C202.035,333.281,299.402,221.484,298.652,128
	c0-70.695-57.289-128-127.992-128c-70.688,0-128,57.305-128,128c0,5.891,4.781,10.664,10.672,10.664S64.004,133.891,64.004,128
	c0-28.492,11.094-55.281,31.234-75.422c20.156-20.148,46.938-31.242,75.422-31.242c28.5,0,55.281,11.094,75.43,31.242
	c20.156,20.141,31.25,46.93,31.25,75.422v0.086v0.086c0.438,56.375-41.555,131.625-121.461,217.609
	c-21.812,23.469-43.766,44.812-63.109,62.625c-1.953,1.938-3.172,4.625-3.172,7.594c0,5.891,4.781,10.656,10.672,10.656h358.383
	c5.906,0,10.688-4.766,10.688-10.656S464.559,405.344,458.652,405.344z"/>
</svg>
