<?xml version="1.0" encoding="iso-8859-1"?>
<!-- Generator: Adobe Illustrator 19.0.0, SVG Export Plug-In . SVG Version: 6.00 Build 0)  -->
<svg version="1.1" id="Layer_1" xmlns="http://www.w3.org/2000/svg" xmlns:xlink="http://www.w3.org/1999/xlink" x="0px" y="0px"
	 viewBox="0 0 512 512" style="enable-background:new 0 0 512 512;" xml:space="preserve">
<path style="fill:#8CC152;" d="M32.004,288c0,123.719,100.281,224,224,224c123.711,0,223.992-100.281,223.992-224
	c0-77.594-39.469-145.961-99.406-186.156c18.406-8.414,31.188-26.961,31.188-48.508C411.777,23.875,387.902,0,358.434,0
	c-29.438,0-53.312,23.875-53.312,53.336c0,21.656,12.906,40.281,31.438,48.633c23.469,10.172,44.562,24.539,62.75,42.727
	c18.625,18.617,33.219,40.297,43.438,64.422c10.562,24.977,15.906,51.508,15.906,78.883s-5.344,53.906-15.906,78.875
	c-10.219,24.125-24.812,45.812-43.438,64.438s-40.312,33.219-64.438,43.438c-24.969,10.562-51.5,15.906-78.867,15.906
	c-27.375,0-53.906-5.344-78.875-15.906c-24.141-10.219-45.812-24.812-64.438-43.438C94.082,412.688,79.457,391,69.254,366.875
	c-10.562-24.969-15.922-51.5-15.922-78.875s5.359-53.906,15.922-78.883c10.203-24.125,24.828-45.805,43.438-64.422
	c18.188-18.188,39.281-32.578,62.734-42.742c18.516-8.367,31.422-26.984,31.422-48.617C206.848,23.875,182.957,0,153.504,0
	s-53.328,23.875-53.328,53.336c0,21.562,12.797,40.117,31.203,48.523C71.457,142.055,32.004,210.414,32.004,288z M326.434,53.336
	c0-17.648,14.375-32,32-32c17.656,0,32,14.352,32,32c0,17.641-14.344,32-32,32C340.809,85.336,326.434,70.977,326.434,53.336z
	 M121.504,53.336c0-17.648,14.359-32,32-32s32,14.352,32,32c0,17.641-14.359,32-32,32S121.504,70.977,121.504,53.336z"/>
<g>
	<path style="fill:#A0D468;" d="M100.285,53.336C100.285,23.875,124.16,0,153.629,0c29.438,0,53.328,23.875,53.328,53.336
		c0,29.453-23.891,53.328-53.328,53.328C124.16,106.664,100.285,82.789,100.285,53.336z"/>
	<path style="fill:#A0D468;" d="M305.277,53.336C305.277,23.875,329.152,0,358.621,0c29.438,0,53.344,23.875,53.344,53.336
		c0,29.453-23.906,53.328-53.344,53.328C329.152,106.664,305.277,82.789,305.277,53.336z"/>
</g>
</svg>
