<?xml version="1.0" encoding="iso-8859-1"?>
<!-- Generator: Adobe Illustrator 19.0.0, SVG Export Plug-In . SVG Version: 6.00 Build 0)  -->
<svg version="1.1" id="Layer_1" xmlns="http://www.w3.org/2000/svg" xmlns:xlink="http://www.w3.org/1999/xlink" x="0px" y="0px"
	 viewBox="0 0 511.999 511.999" style="enable-background:new 0 0 511.999 511.999;" xml:space="preserve">
<path style="fill:#F6BB42;" d="M255.972,170.656c0-56.547,45.844-102.391,102.406-102.391c21.062,0,40.656,6.359,56.938,17.281
	C385.815,34.406,330.597,0,267.347,0C173.089,0,96.683,76.406,96.683,170.656c0,87.078,65.203,158.922,149.453,169.359v161.312
	c0,5.891,4.773,10.672,10.68,10.672c5.875,0,10.656-4.781,10.656-10.672v-160c63.219-0.047,118.375-34.453,147.844-85.547
	c-16.281,10.906-35.875,17.281-56.938,17.281C301.815,273.062,255.972,227.219,255.972,170.656z"/>
<path style="fill:#FFCE54;" d="M331.472,426.656H182.136c-5.891,0-10.672,4.781-10.672,10.672S176.245,448,182.136,448h149.336
	c5.875,0,10.656-4.781,10.656-10.672S337.347,426.656,331.472,426.656z"/>
</svg>
