<?xml version="1.0" encoding="iso-8859-1"?>
<!-- Generator: Adobe Illustrator 19.0.0, SVG Export Plug-In . SVG Version: 6.00 Build 0)  -->
<svg version="1.1" id="Layer_1" xmlns="http://www.w3.org/2000/svg" xmlns:xlink="http://www.w3.org/1999/xlink" x="0px" y="0px"
	 viewBox="0 0 512 512" style="enable-background:new 0 0 512 512;" xml:space="preserve">
<polygon style="fill:#DA4453;" points="347.996,179.133 332.902,164.055 489.246,7.719 504.34,22.805 "/>
<g>
	<path style="fill:#ED5565;" d="M346.434,165.555c-39.625-39.625-91.562-59.438-143.492-59.438
		c-51.938,0-103.875,19.812-143.5,59.438c-79.25,79.258-79.25,207.758,0,287.008C99.066,492.188,151.004,512,202.941,512
		c51.93,0,103.867-19.812,143.492-59.438C425.684,373.312,425.684,244.812,346.434,165.555z M331.371,437.469
		c-17.375,17.344-37.562,30.781-60.094,39.906c-21.75,8.812-44.742,13.281-68.336,13.281s-46.594-4.469-68.359-13.281
		c-22.516-9.141-42.719-22.562-60.062-39.906s-30.766-37.547-39.891-60.062c-8.828-21.75-13.297-44.75-13.297-68.344
		s4.469-46.594,13.297-68.352c9.125-22.516,22.547-42.727,39.891-60.07s37.562-30.766,60.078-39.891
		c21.75-8.828,44.75-13.297,68.344-13.297s46.586,4.469,68.336,13.297c22.531,9.125,42.75,22.547,60.094,39.891
		c17.312,17.344,30.75,37.555,39.875,60.07c8.812,21.758,13.312,44.758,13.312,68.352s-4.5,46.594-13.312,68.344
		C362.121,399.922,348.684,420.125,331.371,437.469z"/>
	<path style="fill:#ED5565;" d="M501.34,0h-96c-5.906,0-10.688,4.773-10.688,10.664s4.781,10.672,10.688,10.672h85.312v85.328
		c0,5.891,4.781,10.672,10.688,10.672c5.875,0,10.656-4.781,10.656-10.672v-96C511.996,4.773,507.215,0,501.34,0z"/>
</g>
</svg>
