<?xml version="1.0" encoding="iso-8859-1"?>
<!-- Generator: Adobe Illustrator 19.0.0, SVG Export Plug-In . SVG Version: 6.00 Build 0)  -->
<svg version="1.1" id="Layer_1" xmlns="http://www.w3.org/2000/svg" xmlns:xlink="http://www.w3.org/1999/xlink" x="0px" y="0px"
	 viewBox="0 0 512 512" style="enable-background:new 0 0 512 512;" xml:space="preserve">
<g>
	<path style="fill:#37BC9B;" d="M245.332,353v148.328c0,5.891,4.781,10.672,10.656,10.672c5.898,0,10.68-4.781,10.68-10.672V353
		H245.332z"/>
	<path style="fill:#37BC9B;" d="M376.668,60.656c4.875,4.875,9.438,10,13.625,15.344c9.625-19.734,15.031-41.906,15.031-65.344
		c0-5.89-4.781-10.656-10.656-10.656c-5.906,0-10.688,4.766-10.688,10.656c0,16.75-3.188,33-9.281,48.062
		C375.355,59.359,376.012,60,376.668,60.656z"/>
	<path style="fill:#37BC9B;" d="M135.332,60.656c0.625-0.656,1.312-1.297,1.969-1.938c-6.094-15.062-9.312-31.312-9.312-48.062
		c0-5.891-4.75-10.656-10.656-10.656c-5.875,0-10.656,4.766-10.656,10.656c0,23.438,5.406,45.609,15,65.344
		C125.895,70.656,130.426,65.531,135.332,60.656z"/>
</g>
<g>
	<path style="fill:#48CFAD;" d="M255.988,0C155.863,0,74.676,81.188,74.676,181.328c0,100.156,81.188,181.328,181.312,181.328
		c100.148,0,181.336-81.172,181.336-181.328C437.324,81.188,356.137,0,255.988,0z M369.137,294.469
		c-14.719,14.703-31.812,26.234-50.875,34.297c-19.719,8.344-40.656,12.562-62.273,12.562c-21.594,0-42.562-4.219-62.25-12.562
		c-19.062-8.062-36.188-19.594-50.875-34.297s-26.25-31.812-34.312-50.859c-8.312-19.719-12.562-40.672-12.562-62.281
		s4.25-42.562,12.562-62.266c8.062-19.062,19.625-36.172,34.312-50.875s31.812-26.234,50.875-34.297
		c19.688-8.328,40.656-12.562,62.25-12.562c21.617,0,42.555,4.234,62.273,12.562c19.062,8.062,36.156,19.594,50.875,34.297
		c14.688,14.703,26.219,31.812,34.281,50.875c8.344,19.703,12.562,40.656,12.562,62.266s-4.219,42.562-12.562,62.281
		C395.355,262.656,383.824,279.766,369.137,294.469z"/>
	<path style="fill:#48CFAD;" d="M330.668,426.656H181.332c-5.875,0-10.656,4.781-10.656,10.672S175.457,448,181.332,448h149.336
		c5.875,0,10.656-4.781,10.656-10.672S336.543,426.656,330.668,426.656z"/>
</g>
</svg>
