<?xml version="1.0" encoding="iso-8859-1"?>
<!-- Generator: Adobe Illustrator 19.0.0, SVG Export Plug-In . SVG Version: 6.00 Build 0)  -->
<svg version="1.1" id="Layer_1" xmlns="http://www.w3.org/2000/svg" xmlns:xlink="http://www.w3.org/1999/xlink" x="0px" y="0px"
	 viewBox="0 0 511.991 511.991" style="enable-background:new 0 0 511.991 511.991;" xml:space="preserve">
<path style="fill:#3BAFDA;" d="M245.057,16.498v484.837c0,5.875,4.781,10.656,10.672,10.656c5.882,0,10.664-4.781,10.664-10.656
	V16.498H245.057z"/>
<g>
	<path style="fill:#4FC1E9;" d="M437.047,13.365v167.967c0,24.491-4.781,48.233-14.219,70.577
		c-9.156,21.585-22.219,40.991-38.875,57.647c-16.656,16.655-36.062,29.733-57.655,38.874
		c-22.343,9.438-46.093,14.234-70.569,14.234c-24.484,0-48.234-4.797-70.577-14.234c-21.593-9.141-40.984-22.219-57.64-38.874
		c-16.671-16.656-29.749-36.062-38.874-57.647c-9.453-22.344-14.234-46.086-14.234-70.577V10.818H53.06v170.561
		c0.031,111.896,90.749,202.614,202.669,202.614c111.912,0,202.661-90.733,202.661-202.661V13.365H437.047z"/>
	<path style="fill:#4FC1E9;" d="M330.392,426.664H181.058c-5.891,0-10.656,4.766-10.656,10.672c0,5.875,4.765,10.656,10.656,10.656
		h149.333c5.906,0,10.656-4.781,10.656-10.656C341.048,431.43,336.298,426.664,330.392,426.664z"/>
	<path style="fill:#4FC1E9;" d="M501.045,48.381L455.796,3.123c-4.155-4.164-10.905-4.164-15.093,0l-45.25,45.257
		c-4.156,4.164-4.156,10.921,0,15.085c4.188,4.164,10.938,4.164,15.094,0l37.719-37.71l37.717,37.71
		c4.156,4.164,10.906,4.164,15.062,0C505.232,59.302,505.232,52.545,501.045,48.381z"/>
	<path style="fill:#4FC1E9;" d="M308.517,48.381l-45.25-45.257c-4.164-4.164-10.914-4.164-15.085,0l-45.25,45.257
		c-4.172,4.164-4.172,10.921,0,15.085c4.156,4.164,10.922,4.164,15.078,0l37.718-37.71l37.695,37.71
		c4.188,4.164,10.938,4.164,15.094,0C312.705,59.302,312.705,52.545,308.517,48.381z"/>
	<path style="fill:#4FC1E9;" d="M116.528,48.381L71.278,3.123c-4.172-4.164-10.921-4.164-15.093,0L10.935,48.38
		c-4.172,4.164-4.172,10.921,0,15.085c4.156,4.164,10.922,4.164,15.078,0l37.718-37.71l37.703,37.71
		c4.172,4.164,10.921,4.164,15.093,0C120.684,59.302,120.684,52.545,116.528,48.381z"/>
</g>
</svg>
