<?xml version="1.0" encoding="iso-8859-1"?>
<!-- Generator: Adobe Illustrator 19.0.0, SVG Export Plug-In . SVG Version: 6.00 Build 0)  -->
<svg version="1.1" id="Layer_1" xmlns="http://www.w3.org/2000/svg" xmlns:xlink="http://www.w3.org/1999/xlink" x="0px" y="0px"
	 viewBox="0 0 512 512" style="enable-background:new 0 0 512 512;" xml:space="preserve">
<path style="fill:#8CC152;" d="M245.34,348v153.344c0,5.875,4.758,10.656,10.665,10.656c5.875,0,10.656-4.781,10.656-10.656V348
	H245.34z"/>
<g>
	<path style="fill:#A0D468;" d="M429.785,169.359L263.535,3.109C261.473,1.039,258.723,0,256.004,0c-2.75,0-5.469,1.039-7.532,3.109
		L82.215,169.359c-4.156,4.148-4.156,10.938,0,15.086l166.258,166.242c2.062,2.078,4.781,3.125,7.532,3.125
		c2.718,0,5.468-1.047,7.531-3.125l166.25-166.242C433.941,180.297,433.941,173.508,429.785,169.359z M256.004,328.062
		L104.84,176.898L256.004,25.742L407.16,176.898L256.004,328.062z"/>
	<path style="fill:#A0D468;" d="M330.66,426.656H181.34c-5.891,0-10.672,4.781-10.672,10.688c0,5.875,4.781,10.656,10.672,10.656
		h149.32c5.906,0,10.688-4.781,10.688-10.656C341.348,431.438,336.566,426.656,330.66,426.656z"/>
</g>
</svg>
