<?xml version="1.0" encoding="iso-8859-1"?>
<!-- Generator: Adobe Illustrator 19.0.0, SVG Export Plug-In . SVG Version: 6.00 Build 0)  -->
<svg version="1.1" id="Layer_1" xmlns="http://www.w3.org/2000/svg" xmlns:xlink="http://www.w3.org/1999/xlink" x="0px" y="0px"
	 viewBox="0 0 512 512" style="enable-background:new 0 0 512 512;" xml:space="preserve">
<path style="fill:#37BC9B;" d="M373.348,490.656h-266.68V304.719H85.34v196.625c0,5.875,4.781,10.656,10.672,10.656h277.336
	c5.875,0,10.656-4.781,10.656-10.656C384.004,495.438,379.223,490.656,373.348,490.656z"/>
<path style="fill:#48CFAD;" d="M266.66,0H96.012C90.121,0,85.34,4.773,85.34,10.664V320h181.32c88.375,0,160-71.633,160-160
	S355.035,0,266.66,0z M364.723,258.062c-12.75,12.734-27.562,22.734-44.094,29.719c-17.062,7.219-35.219,10.875-53.969,10.875
	H106.668V21.336H266.66c18.75,0,36.906,3.664,53.969,10.891c16.531,6.977,31.344,16.977,44.094,29.719s22.75,27.578,29.719,44.086
	c7.25,17.086,10.906,35.242,10.906,53.969s-3.656,36.883-10.906,53.969C387.473,230.477,377.473,245.312,364.723,258.062z"/>
</svg>
