<?xml version="1.0" encoding="iso-8859-1"?>
<!-- Generator: Adobe Illustrator 19.0.0, SVG Export Plug-In . SVG Version: 6.00 Build 0)  -->
<svg version="1.1" id="Layer_1" xmlns="http://www.w3.org/2000/svg" xmlns:xlink="http://www.w3.org/1999/xlink" x="0px" y="0px"
	 viewBox="0 0 512 512" style="enable-background:new 0 0 512 512;" xml:space="preserve">
<path style="fill:#4A89DC;" d="M458.668,160c0-5.875-4.781-10.656-10.688-10.656c-5.875,0-10.656,4.781-10.656,10.656
	c0,24.5-4.781,48.25-14.25,70.594c-9.125,21.562-22.219,40.969-38.875,57.625s-36.031,29.75-57.625,38.875
	c-22.344,9.438-46.094,14.25-70.586,14.25c-24.469,0-48.219-4.812-70.562-14.25c-21.594-9.125-41-22.219-57.656-38.875
	s-29.719-36.062-38.875-57.625C79.457,208.25,74.676,184.5,74.676,160l0,0c0-5.875-4.781-10.656-10.688-10.656
	c-5.875,0-10.656,4.781-10.656,10.656l0,0l0,0l0,0l0,0c0,108.344,85.031,196.844,192,202.406v138.938
	c0,5.875,4.781,10.656,10.656,10.656c5.898,0,10.68-4.781,10.68-10.656V362.406C373.637,356.844,458.668,268.344,458.668,160z"/>
<g>
	<path style="fill:#5D9CEC;" d="M256.004,320c88.383,0,160.008-71.625,160.008-160S344.387,0,256.004,0
		c-88.344,0-160,71.625-160,160S167.66,320,256.004,320z M117.348,160c0-18.719,3.656-36.875,10.875-53.969
		c7-16.5,17-31.344,29.75-44.094c12.719-12.719,27.562-22.719,44.062-29.719c17.094-7.219,35.25-10.875,53.969-10.875
		c18.758,0,36.914,3.656,53.977,10.875c16.531,7,31.344,17,44.094,29.719c12.75,12.75,22.75,27.594,29.719,44.094
		c7.219,17.094,10.906,35.25,10.906,53.969s-3.688,36.906-10.906,53.969c-6.969,16.5-16.969,31.344-29.719,44.094
		s-27.562,22.75-44.094,29.719c-17.062,7.219-35.219,10.875-53.977,10.875c-18.719,0-36.875-3.656-53.969-10.875
		c-16.5-6.969-31.344-16.969-44.062-29.719c-12.75-12.75-22.75-27.594-29.75-44.094C121.004,196.906,117.348,178.719,117.348,160z"
		/>
	<path style="fill:#5D9CEC;" d="M330.668,426.594H181.332c-5.906,0-10.656,4.781-10.656,10.688c0,5.875,4.75,10.656,10.656,10.656
		h149.336c5.875,0,10.656-4.781,10.656-10.656C341.324,431.375,336.543,426.594,330.668,426.594z"/>
</g>
</svg>
