<?xml version="1.0" encoding="iso-8859-1"?>
<!-- Generator: Adobe Illustrator 19.0.0, SVG Export Plug-In . SVG Version: 6.00 Build 0)  -->
<svg version="1.1" id="Layer_1" xmlns="http://www.w3.org/2000/svg" xmlns:xlink="http://www.w3.org/1999/xlink" x="0px" y="0px"
	 viewBox="0 0 512 512" style="enable-background:new 0 0 512 512;" xml:space="preserve">
<path style="fill:#967ADC;" d="M479.996,224c0-123.711-100.281-224-223.992-224c-123.719,0-224,100.289-224,224
	c0,77.594,39.469,145.969,99.406,186.156c-18.406,8.406-31.188,26.969-31.188,48.5c0,29.469,23.875,53.344,53.344,53.344
	c29.438,0,53.328-23.875,53.328-53.344c0-21.656-12.922-40.281-31.453-48.625c-23.469-10.172-44.562-24.531-62.75-42.719
	C94.066,348.688,79.473,327,69.254,302.875C58.691,277.906,53.348,251.367,53.348,224s5.344-53.906,15.906-78.883
	c10.219-24.125,24.812-45.805,43.438-64.422c18.625-18.625,40.312-33.234,64.438-43.445c24.969-10.562,51.5-15.914,78.875-15.914
	c27.367,0,53.898,5.352,78.867,15.914c24.156,10.211,45.812,24.82,64.438,43.445c18.625,18.617,33.25,40.297,43.438,64.422
	c10.562,24.977,15.938,51.516,15.938,78.883s-5.375,53.906-15.938,78.875C432.56,327,417.936,348.687,399.31,367.313
	c-18.188,18.188-39.281,32.562-62.719,42.734c-18.531,8.359-31.438,26.984-31.438,48.609c0,29.469,23.906,53.344,53.344,53.344
	c29.469,0,53.344-23.875,53.344-53.344c0-21.562-12.812-40.109-31.219-48.516C440.559,369.938,479.996,301.594,479.996,224z
	 M185.566,458.656c0,17.656-14.359,32-32,32c-17.656,0-32-14.344-32-32c0-17.625,14.344-32,32-32
	C171.207,426.656,185.566,441.031,185.566,458.656z M390.496,458.656c0,17.656-14.344,32-32,32c-17.625,0-32-14.344-32-32
	c0-17.625,14.375-32,32-32C376.152,426.656,390.496,441.031,390.496,458.656z"/>
<g>
	<path style="fill:#AC92EC;" d="M411.715,458.656c0,29.469-23.875,53.344-53.344,53.344c-29.438,0-53.312-23.875-53.312-53.344
		c0-29.438,23.875-53.312,53.312-53.312C387.84,405.344,411.715,429.219,411.715,458.656z"/>
	<path style="fill:#AC92EC;" d="M206.723,458.656c0,29.469-23.875,53.344-53.344,53.344c-29.438,0-53.328-23.875-53.328-53.344
		c0-29.438,23.891-53.312,53.328-53.312C182.848,405.344,206.723,429.219,206.723,458.656z"/>
</g>
</svg>
