<?xml version="1.0" encoding="iso-8859-1"?>
<!-- Generator: Adobe Illustrator 19.0.0, SVG Export Plug-In . SVG Version: 6.00 Build 0)  -->
<svg version="1.1" id="Layer_1" xmlns="http://www.w3.org/2000/svg" xmlns:xlink="http://www.w3.org/1999/xlink" x="0px" y="0px"
	 viewBox="0 0 511.993 511.993" style="enable-background:new 0 0 511.993 511.993;" xml:space="preserve">
<g>
	<path style="fill:#8CC152;" d="M277.335,174.469c-70.703,0-128.008,57.305-128.008,127.992h21.328
		c0-28.484,11.102-55.273,31.242-75.414c20.148-20.148,46.938-31.242,75.438-31.242c28.484,0,55.266,11.094,75.406,31.242
		c20.156,20.141,31.25,46.93,31.25,75.414v0.094v0.094c0.328,41.609-22.5,93.531-66.594,152.438
		c-10.062,12.719-16.062,28.781-16.062,46.25c0,5.875,4.781,10.656,10.656,10.656c5.906,0,10.672-4.781,10.672-10.656
		c0.016-11.219,3.531-21.734,9.484-30.312c41.547-54.875,73.594-114.781,73.188-168.562
		C405.335,231.773,348.022,174.469,277.335,174.469z"/>
	<path style="fill:#8CC152;" d="M322.663,501.336L322.663,501.336C322.663,501.351,322.663,501.336,322.663,501.336z"/>
</g>
<path style="fill:#A0D468;" d="M149.327,10.664v416c0,5.891,4.773,10.672,10.664,10.672s10.664-4.781,10.664-10.672v-416
	C170.655,10.664,149.327,10.664,149.327,10.664z"/>
<path style="fill:#8CC152;" d="M202.655,0h-85.328c-5.891,0-10.672,4.773-10.672,10.664s4.781,10.672,10.672,10.672h85.328
	c5.891,0,10.672-4.781,10.672-10.672S208.546,0,202.655,0z"/>
</svg>
