<?xml version="1.0" encoding="iso-8859-1"?>
<!-- Generator: Adobe Illustrator 19.0.0, SVG Export Plug-In . SVG Version: 6.00 Build 0)  -->
<svg version="1.1" id="Layer_1" xmlns="http://www.w3.org/2000/svg" xmlns:xlink="http://www.w3.org/1999/xlink" x="0px" y="0px"
	 viewBox="0 0 512 512" style="enable-background:new 0 0 512 512;" xml:space="preserve">
<path style="fill:#E9573F;" d="M244.644,0c-63.25,0-118.469,34.414-147.953,85.547c16.281-10.914,35.875-17.281,56.938-17.281
	c56.562,0,102.406,45.844,102.406,102.398s-45.844,102.398-102.406,102.398c-21.062,0-40.656-6.375-56.938-17.273
	c29.469,51.086,84.641,85.492,147.844,85.555v160c0,5.875,4.766,10.656,10.656,10.656c5.89,0,10.68-4.781,10.68-10.656V340.031
	c84.25-10.453,149.438-82.281,149.438-169.367C415.308,76.414,338.901,0,244.644,0z M356.245,269.906
	c-24.125,27.125-57.156,44.5-93,48.938l-9.32,1.156h-9.375c-26.703-0.031-52.891-7.156-75.734-20.656
	c-2.766-1.625-5.453-3.344-8.094-5.141c14.188-0.797,27.984-3.984,41.078-9.547c14.734-6.219,27.969-15.141,39.328-26.5
	c11.344-11.352,20.273-24.586,26.492-39.32c6.469-15.266,9.75-31.477,9.75-48.172s-3.281-32.898-9.75-48.164
	c-6.219-14.742-15.148-27.969-26.492-39.328C229.769,71.82,216.534,62.899,201.8,56.664c-13.094-5.539-26.891-8.734-41.078-9.531
	c2.656-1.805,5.359-3.531,8.125-5.164c22.875-13.5,49.078-20.633,75.797-20.633c20.164,0,39.727,3.945,58.133,11.727
	c17.781,7.516,33.75,18.289,47.469,32.008s24.5,29.695,32,47.477c7.781,18.398,11.75,37.953,11.75,58.117
	C393.995,207.312,380.589,242.555,356.245,269.906z"/>
<path style="fill:#FC6E51;" d="M329.87,426.656H180.534c-5.891,0-10.672,4.781-10.672,10.688c0,5.875,4.781,10.656,10.672,10.656
	H329.87c5.875,0,10.656-4.781,10.656-10.656C340.526,431.438,335.745,426.656,329.87,426.656z"/>
</svg>
