<?xml version="1.0" encoding="iso-8859-1"?>
<!-- Generator: Adobe Illustrator 19.0.0, SVG Export Plug-In . SVG Version: 6.00 Build 0)  -->
<svg version="1.1" id="Layer_1" xmlns="http://www.w3.org/2000/svg" xmlns:xlink="http://www.w3.org/1999/xlink" x="0px" y="0px"
	 viewBox="0 0 512.004 512.004" style="enable-background:new 0 0 512.004 512.004;" xml:space="preserve">
<path style="fill:#E9573F;" d="M308.807,48.379l-45.25-45.25c-4.188-4.172-10.938-4.172-15.094,0l-45.258,45.25
	c-4.164,4.172-4.164,10.922,0,15.078c4.164,4.172,10.922,4.172,15.086,0l27.047-27.031V170.66h21.328V36.41l27.047,27.047
	c4.156,4.172,10.922,4.172,15.094,0C312.963,59.301,312.963,52.551,308.807,48.379z"/>
<path style="fill:#FC6E51;" d="M255.994,149.332c-100.141,0-181.328,81.188-181.328,181.328
	c0,100.156,81.188,181.344,181.328,181.344c100.156,0,181.344-81.188,181.344-181.344
	C437.338,230.52,356.15,149.332,255.994,149.332z M369.15,443.801c-14.719,14.703-31.828,26.25-50.875,34.297
	c-19.719,8.344-40.656,12.562-62.281,12.562c-21.602,0-42.555-4.219-62.266-12.562c-19.047-8.047-36.164-19.594-50.859-34.297
	c-14.703-14.703-26.242-31.812-34.305-50.859c-8.335-19.719-12.562-40.672-12.562-62.282s4.227-42.547,12.562-62.266
	c8.062-19.047,19.602-36.156,34.305-50.859c14.695-14.703,31.812-26.25,50.859-34.297c19.711-8.344,40.664-12.578,62.266-12.578
	c21.625,0,42.562,4.234,62.281,12.578c19.047,8.047,36.156,19.594,50.875,34.297c14.688,14.703,26.219,31.812,34.281,50.859
	c8.344,19.719,12.562,40.656,12.562,62.266s-4.219,42.562-12.562,62.281C395.369,411.988,383.838,429.098,369.15,443.801z"/>
<path style="fill:#E9573F;" d="M255.994,288.004c-23.555,0-42.656,19.094-42.656,42.656c0,23.578,19.102,42.672,42.656,42.672
	c23.562,0,42.672-19.094,42.672-42.672C298.666,307.098,279.557,288.004,255.994,288.004L255.994,288.004z"/>
</svg>
