<?xml version="1.0" encoding="iso-8859-1"?>
<!-- Generator: Adobe Illustrator 19.0.0, SVG Export Plug-In . SVG Version: 6.00 Build 0)  -->
<svg version="1.1" id="Layer_1" xmlns="http://www.w3.org/2000/svg" xmlns:xlink="http://www.w3.org/1999/xlink" x="0px" y="0px"
	 viewBox="0 0 511.992 511.992" style="enable-background:new 0 0 511.992 511.992;" xml:space="preserve">
<path style="fill:#D770AD;" d="M245.32,349.742v151.594c0,5.891,4.781,10.656,10.672,10.656c5.898,0,10.68-4.766,10.68-10.656
	V349.742H245.32z"/>
<g>
	<path style="fill:#EC87C0;" d="M255.992,0C155.851,0,74.664,81.188,74.664,181.336c0,100.156,81.188,181.328,181.328,181.328
		c100.148,0,181.336-81.172,181.336-181.328C437.328,81.187,356.141,0,255.992,0z M369.141,294.461
		c-14.719,14.719-31.812,26.25-50.875,34.312c-19.719,8.344-40.656,12.562-62.273,12.562c-21.609,0-42.562-4.219-62.266-12.562
		c-19.062-8.062-36.172-19.594-50.875-34.312c-14.703-14.688-26.234-31.805-34.297-50.852
		c-8.328-19.719-12.562-40.664-12.562-62.273s4.234-42.562,12.562-62.273c8.062-19.055,19.594-36.164,34.297-50.867
		s31.812-26.242,50.875-34.297c19.703-8.336,40.656-12.562,62.266-12.562c21.617,0,42.555,4.227,62.273,12.562
		c19.062,8.055,36.156,19.594,50.875,34.297c14.688,14.703,26.219,31.812,34.281,50.867c8.344,19.711,12.562,40.664,12.562,62.273
		s-4.219,42.555-12.562,62.273C395.359,262.656,383.828,279.773,369.141,294.461z"/>
	<path style="fill:#EC87C0;" d="M330.672,426.664H181.32c-5.891,0-10.656,4.781-10.656,10.672s4.766,10.656,10.656,10.656h149.352
		c5.875,0,10.656-4.766,10.656-10.656S336.547,426.664,330.672,426.664z"/>
</g>
</svg>
