<?xml version="1.0" encoding="iso-8859-1"?>
<!-- Generator: Adobe Illustrator 19.0.0, SVG Export Plug-In . SVG Version: 6.00 Build 0)  -->
<svg version="1.1" id="Layer_1" xmlns="http://www.w3.org/2000/svg" xmlns:xlink="http://www.w3.org/1999/xlink" x="0px" y="0px"
	 viewBox="0 0 511.992 511.992" style="enable-background:new 0 0 511.992 511.992;" xml:space="preserve">
<path style="fill:#48CFAD;" d="M331.461,206.676c-3.688,0-6.938,1.875-8.844,4.719l-66.625,96.219l-66.609-96.219
	c-1.914-2.844-5.164-4.719-8.852-4.719c-5.891,0-10.672,4.781-10.672,10.672c0,2.172,0.648,4.188,1.766,5.859l75.508,109.062
	c1.922,2.859,5.172,4.734,8.859,4.734c3.703,0,6.969-1.875,8.875-4.734l75.5-109.062c1.125-1.672,1.781-3.688,1.781-5.859
	C342.148,211.457,337.367,206.676,331.461,206.676z"/>
<g>
	<path style="fill:#37BC9B;" d="M245.336,196.019c0,5.891,4.781,10.656,10.656,10.656c4.219,0,7.844-2.422,9.594-5.969
		l21.172-42.359c0.797-1.5,1.234-3.188,1.234-5c0-3.031-1.25-5.75-3.281-7.703l-18.062-18.047c0,0,0.016-16.766,0.016-16.922
		c0-5.891-4.766-10.656-10.672-10.656c-5.875,0-10.656,4.766-10.656,10.656v21.344c0,3.016,1.266,5.75,3.281,7.688l15.812,15.812
		l-18,35.781C245.726,192.723,245.336,194.316,245.336,196.019z"/>
	<path style="fill:#37BC9B;" d="M501.336,206.691H383.367c-3.703,0-6.953,1.875-8.875,4.734l-118.5,171.125L137.5,211.426
		c-1.914-2.859-5.164-4.734-8.859-4.734H10.664C4.773,206.692,0,211.473,0,217.364s4.773,10.656,10.664,10.656h112.383
		l124.445,179.703c1.938,2.578,5.031,4.25,8.5,4.25l0,0l0,0c3.484,0,6.562-1.672,8.516-4.25L388.961,228.02h112.375
		c5.891,0,10.656-4.766,10.656-10.656S507.226,206.691,501.336,206.691z"/>
</g>
</svg>
