<svg width="100" height="100" viewBox="0 0 100 100" fill="none" xmlns="http://www.w3.org/2000/svg">
    <path d="M69.5312 77H32.2656V71.8047L51.9531 49.9297C54.8698 46.6224 56.875 43.9401 57.9688 41.8828C59.0885 39.7995 59.6484 37.651 59.6484 35.4375C59.6484 32.4688 58.75 30.0339 56.9531 28.1328C55.1562 26.2318 52.7604 25.2812 49.7656 25.2812C46.1719 25.2812 43.3724 26.3099 41.3672 28.3672C39.388 30.3984 38.3984 33.237 38.3984 36.8828H31.1719C31.1719 31.6484 32.8516 27.4167 36.2109 24.1875C39.5964 20.9583 44.1146 19.3438 49.7656 19.3438C55.0521 19.3438 59.2318 20.737 62.3047 23.5234C65.3776 26.2839 66.9141 29.9688 66.9141 34.5781C66.9141 40.1771 63.3464 46.8438 56.2109 54.5781L40.9766 71.1016H69.5312V77Z" fill="black"/>
</svg>
