<svg width="100" height="100" viewBox="0 0 100 100" fill="none" xmlns="http://www.w3.org/2000/svg">
    <path d="M42.7734 45.0469H48.2031C51.6146 44.9948 54.2969 44.0964 56.25 42.3516C58.2031 40.6068 59.1797 38.25 59.1797 35.2812C59.1797 28.6146 55.8594 25.2812 49.2188 25.2812C46.0938 25.2812 43.5938 26.1797 41.7188 27.9766C39.8698 29.7474 38.9453 32.1042 38.9453 35.0469H31.7188C31.7188 30.5417 33.3594 26.8047 36.6406 23.8359C39.9479 20.8411 44.1406 19.3438 49.2188 19.3438C54.5833 19.3438 58.7891 20.763 61.8359 23.6016C64.8828 26.4401 66.4062 30.3854 66.4062 35.4375C66.4062 37.9115 65.599 40.3073 63.9844 42.625C62.3958 44.9427 60.2214 46.6745 57.4609 47.8203C60.5859 48.8099 62.9948 50.4505 64.6875 52.7422C66.4062 55.0339 67.2656 57.8333 67.2656 61.1406C67.2656 66.2448 65.599 70.2943 62.2656 73.2891C58.9323 76.2839 54.5964 77.7812 49.2578 77.7812C43.9193 77.7812 39.5703 76.3359 36.2109 73.4453C32.8776 70.5547 31.2109 66.7396 31.2109 62H38.4766C38.4766 64.9948 39.4531 67.3906 41.4062 69.1875C43.3594 70.9844 45.9766 71.8828 49.2578 71.8828C52.7474 71.8828 55.4167 70.9714 57.2656 69.1484C59.1146 67.3255 60.0391 64.7083 60.0391 61.2969C60.0391 57.9896 59.0234 55.4505 56.9922 53.6797C54.9609 51.9089 52.0312 50.9974 48.2031 50.9453H42.7734V45.0469Z" fill="black"/>
</svg>
