<svg width="100" height="100" viewBox="0 0 100 100" fill="none" xmlns="http://www.w3.org/2000/svg">
    <path d="M35.5859 48.4844L38.4766 20.125H67.6172V26.8047H44.6094L42.8906 42.3125C45.6771 40.6719 48.8411 39.8516 52.3828 39.8516C57.5651 39.8516 61.6797 41.5703 64.7266 45.0078C67.7734 48.4193 69.2969 53.0417 69.2969 58.875C69.2969 64.7344 67.7083 69.3568 64.5312 72.7422C61.3802 76.1016 56.9661 77.7812 51.2891 77.7812C46.263 77.7812 42.1615 76.388 38.9844 73.6016C35.8073 70.8151 33.9974 66.9609 33.5547 62.0391H40.3906C40.8333 65.2943 41.9922 67.7552 43.8672 69.4219C45.7422 71.0625 48.2161 71.8828 51.2891 71.8828C54.6484 71.8828 57.2786 70.737 59.1797 68.4453C61.1068 66.1536 62.0703 62.9896 62.0703 58.9531C62.0703 55.151 61.0286 52.1042 58.9453 49.8125C56.888 47.4948 54.1406 46.3359 50.7031 46.3359C47.5521 46.3359 45.0781 47.026 43.2812 48.4062L41.3672 49.9688L35.5859 48.4844Z" fill="black"/>
</svg>
