<svg width="100" height="100" viewBox="0 0 100 100" fill="none" xmlns="http://www.w3.org/2000/svg">
    <path d="M60.625 20.0859V26.2188H59.2969C53.6719 26.3229 49.1927 27.9896 45.8594 31.2188C42.526 34.4479 40.599 38.9922 40.0781 44.8516C43.0729 41.4141 47.1615 39.6953 52.3438 39.6953C57.2917 39.6953 61.237 41.4401 64.1797 44.9297C67.1484 48.4193 68.6328 52.9245 68.6328 58.4453C68.6328 64.3047 67.0312 68.9922 63.8281 72.5078C60.651 76.0234 56.3802 77.7812 51.0156 77.7812C45.5729 77.7812 41.1589 75.6979 37.7734 71.5312C34.388 67.3385 32.6953 61.9479 32.6953 55.3594V52.5859C32.6953 42.1172 34.9219 34.1224 39.375 28.6016C43.8542 23.0547 50.5078 20.2161 59.3359 20.0859H60.625ZM51.1328 45.7109C48.6589 45.7109 46.3802 46.4531 44.2969 47.9375C42.2135 49.4219 40.7682 51.2839 39.9609 53.5234V56.1797C39.9609 60.8672 41.0156 64.6432 43.125 67.5078C45.2344 70.3724 47.8646 71.8047 51.0156 71.8047C54.2708 71.8047 56.8229 70.6068 58.6719 68.2109C60.5469 65.8151 61.4844 62.6771 61.4844 58.7969C61.4844 54.8906 60.5339 51.7396 58.6328 49.3438C56.7578 46.9219 54.2578 45.7109 51.1328 45.7109Z" fill="black"/>
</svg>
