<svg width="100" height="100" viewBox="0 0 100 100" fill="none" xmlns="http://www.w3.org/2000/svg">
    <path d="M66.7578 34.9688C66.7578 37.8073 66.0026 40.3333 64.4922 42.5469C63.0078 44.7604 60.9896 46.4922 58.4375 47.7422C61.4062 49.0182 63.75 50.8802 65.4688 53.3281C67.2135 55.776 68.0859 58.5495 68.0859 61.6484C68.0859 66.5703 66.4193 70.4896 63.0859 73.4062C59.7786 76.3229 55.4167 77.7812 50 77.7812C44.5312 77.7812 40.1432 76.3229 36.8359 73.4062C33.5547 70.4635 31.9141 66.5443 31.9141 61.6484C31.9141 58.5755 32.7474 55.8021 34.4141 53.3281C36.1068 50.8542 38.4375 48.9792 41.4062 47.7031C38.8802 46.4531 36.888 44.7214 35.4297 42.5078C33.9714 40.2943 33.2422 37.7812 33.2422 34.9688C33.2422 30.1771 34.7786 26.375 37.8516 23.5625C40.9245 20.75 44.974 19.3438 50 19.3438C55 19.3438 59.0365 20.75 62.1094 23.5625C65.2083 26.375 66.7578 30.1771 66.7578 34.9688ZM60.8594 61.4922C60.8594 58.3151 59.8438 55.724 57.8125 53.7188C55.8073 51.7135 53.1771 50.7109 49.9219 50.7109C46.6667 50.7109 44.0495 51.7005 42.0703 53.6797C40.1172 55.6589 39.1406 58.263 39.1406 61.4922C39.1406 64.7214 40.0911 67.2604 41.9922 69.1094C43.9193 70.9583 46.5885 71.8828 50 71.8828C53.3854 71.8828 56.0417 70.9583 57.9688 69.1094C59.8958 67.2344 60.8594 64.6953 60.8594 61.4922ZM50 25.2812C47.1615 25.2812 44.8568 26.1667 43.0859 27.9375C41.3411 29.6823 40.4688 32.0651 40.4688 35.0859C40.4688 37.9766 41.3281 40.3203 43.0469 42.1172C44.7917 43.888 47.1094 44.7734 50 44.7734C52.8906 44.7734 55.1953 43.888 56.9141 42.1172C58.6589 40.3203 59.5312 37.9766 59.5312 35.0859C59.5312 32.1953 58.6328 29.8385 56.8359 28.0156C55.0391 26.1927 52.7604 25.2812 50 25.2812Z" fill="black"/>
</svg>
