<svg width="100" height="100" viewBox="0 0 100 100" fill="none" xmlns="http://www.w3.org/2000/svg">
    <path d="M59.9609 52C58.4505 53.7969 56.6406 55.2422 54.5312 56.3359C52.4479 57.4297 50.1562 57.9766 47.6562 57.9766C44.375 57.9766 41.5104 57.1693 39.0625 55.5547C36.6406 53.9401 34.7656 51.6745 33.4375 48.7578C32.1094 45.8151 31.4453 42.5729 31.4453 39.0312C31.4453 35.2292 32.1615 31.8047 33.5938 28.7578C35.0521 25.7109 37.1094 23.3802 39.7656 21.7656C42.4219 20.151 45.5208 19.3438 49.0625 19.3438C54.6875 19.3438 59.1146 21.4531 62.3438 25.6719C65.599 29.8646 67.2266 35.5938 67.2266 42.8594V44.9688C67.2266 56.0365 65.0391 64.1224 60.6641 69.2266C56.2891 74.3047 49.6875 76.9089 40.8594 77.0391H39.4531V70.9453H40.9766C46.9401 70.8411 51.5234 69.2917 54.7266 66.2969C57.9297 63.276 59.6745 58.5104 59.9609 52ZM48.8281 52C51.25 52 53.4766 51.2578 55.5078 49.7734C57.5651 48.2891 59.0625 46.4531 60 44.2656V41.375C60 36.6354 58.9714 32.7812 56.9141 29.8125C54.8568 26.8438 52.2526 25.3594 49.1016 25.3594C45.9245 25.3594 43.3724 26.5833 41.4453 29.0312C39.5182 31.4531 38.5547 34.6562 38.5547 38.6406C38.5547 42.5208 39.4792 45.724 41.3281 48.25C43.2031 50.75 45.7031 52 48.8281 52Z" fill="black"/>
</svg>
