<svg width="100" height="100" viewBox="0 0 100 100" fill="none" xmlns="http://www.w3.org/2000/svg">
    <path d="M33.5547 77H26.2891V28.8359L11.7188 34.1875V27.625L32.4219 19.8516H33.5547V77ZM90.3906 52.7422C90.3906 61.2057 88.9453 67.4948 86.0547 71.6094C83.1641 75.724 78.6458 77.7812 72.5 77.7812C66.4323 77.7812 61.9401 75.776 59.0234 71.7656C56.1068 67.7292 54.5964 61.7135 54.4922 53.7188V44.0703C54.4922 35.7109 55.9375 29.5 58.8281 25.4375C61.7188 21.375 66.25 19.3438 72.4219 19.3438C78.5417 19.3438 83.0469 21.3099 85.9375 25.2422C88.8281 29.1484 90.3125 35.1901 90.3906 43.3672V52.7422ZM83.1641 42.8594C83.1641 36.7396 82.3047 32.2865 80.5859 29.5C78.8672 26.6875 76.1458 25.2812 72.4219 25.2812C68.724 25.2812 66.0286 26.6745 64.3359 29.4609C62.6432 32.2474 61.7708 36.5312 61.7188 42.3125V53.875C61.7188 60.0208 62.6042 64.5651 64.375 67.5078C66.1719 70.4245 68.8802 71.8828 72.5 71.8828C76.0677 71.8828 78.7109 70.5026 80.4297 67.7422C82.1745 64.9818 83.0859 60.6328 83.1641 54.6953V42.8594Z" fill="black"/>
</svg>
