<svg width="100" height="100" viewBox="0 0 100 100" fill="none" xmlns="http://www.w3.org/2000/svg">
    <path d="M33.5547 77H26.2891V28.8359L11.7188 34.1875V27.625L32.4219 19.8516H33.5547V77ZM91.9922 77H54.7266V71.8047L74.4141 49.9297C77.3307 46.6224 79.3359 43.9401 80.4297 41.8828C81.5495 39.7995 82.1094 37.651 82.1094 35.4375C82.1094 32.4688 81.2109 30.0339 79.4141 28.1328C77.6172 26.2318 75.2214 25.2812 72.2266 25.2812C68.6328 25.2812 65.8333 26.3099 63.8281 28.3672C61.849 30.3984 60.8594 33.237 60.8594 36.8828H53.6328C53.6328 31.6484 55.3125 27.4167 58.6719 24.1875C62.0573 20.9583 66.5755 19.3438 72.2266 19.3438C77.513 19.3438 81.6927 20.737 84.7656 23.5234C87.8385 26.2839 89.375 29.9688 89.375 34.5781C89.375 40.1771 85.8073 46.8438 78.6719 54.5781L63.4375 71.1016H91.9922V77Z" fill="black"/>
</svg>
