<?xml version="1.0" encoding="iso-8859-1"?>
<!-- Generator: Adobe Illustrator 19.0.0, SVG Export Plug-In . SVG Version: 6.00 Build 0)  -->
<svg version="1.1" id="Layer_1" xmlns="http://www.w3.org/2000/svg" xmlns:xlink="http://www.w3.org/1999/xlink" x="0px" y="0px"
	 viewBox="0 0 511.992 511.992" style="enable-background:new 0 0 511.992 511.992;" xml:space="preserve">
<path style="fill:#ED5565;" d="M394.648,0c-50.5,0-93.562,31.922-110.094,76.695c-1.469,4-2.75,8.195-3.812,12.383
	c-6.531,22.789-16.906,73.695-24.742,156.516c-7.844-82.82-18.234-133.727-24.781-156.516c-1.031-4.188-2.312-8.383-3.781-12.383
	C210.906,31.922,167.844,0,117.328,0C52.531,0,0,52.531,0,117.336c0,26.336,8.672,50.641,23.328,70.227l0.016-0.016
	C25.282,190.242,28.422,192,32,192c5.875,0,10.656-4.773,10.656-10.664c0-2.336-0.75-4.492-2.031-6.25l0,0
	c-5.844-7.742-10.438-16.266-13.703-25.367c-3.719-10.359-5.594-21.258-5.594-32.383c0-25.648,9.984-49.75,28.109-67.883
	c18.141-18.133,42.25-28.117,67.891-28.117c20.016,0,39.203,6.094,55.453,17.625c15.938,11.297,27.906,26.898,34.625,45.117
	c1.219,3.273,2.25,6.688,3.109,10.117l0.094,0.391l0.109,0.375c5.719,19.922,14.344,65.203,21.438,132.555
	c8.219,77.945,12.625,166.367,13.125,263.148l0.047,10.672l0,0c0,5.891,4.766,10.656,10.672,10.656
	c5.867,0,10.648-4.766,10.648-10.656l0.062-10.672c0.5-96.781,4.906-185.203,13.094-263.148
	c7.094-67.352,15.75-112.633,21.469-132.555l0.094-0.375l0.094-0.391c0.844-3.43,1.906-6.844,3.094-10.117
	c6.75-18.219,18.719-33.82,34.656-45.117c16.25-11.531,35.438-17.625,55.438-17.625c25.656,0,49.75,9.984,67.875,28.117
	c18.156,18.133,28.125,42.234,28.125,67.883c0,11.125-1.875,22.023-5.594,32.383c-3.25,9.102-7.875,17.625-13.719,25.367h0.031
	c-1.281,1.758-2.031,3.914-2.031,6.25c0,5.891,4.75,10.664,10.656,10.664c3.562,0,6.719-1.758,8.656-4.453v0.016
	c14.656-19.586,23.344-43.891,23.344-70.227C511.992,52.531,459.461,0,394.648,0z"/>
</svg>
