<?xml version="1.0" encoding="iso-8859-1"?>
<!-- Generator: Adobe Illustrator 19.0.0, SVG Export Plug-In . SVG Version: 6.00 Build 0)  -->
<svg version="1.1" id="Layer_1" xmlns="http://www.w3.org/2000/svg" xmlns:xlink="http://www.w3.org/1999/xlink" x="0px" y="0px"
	 viewBox="0 0 512 512" style="enable-background:new 0 0 512 512;" xml:space="preserve">
<path style="fill:#E9573F;" d="M383.996,0c-5.875,0-10.656,4.773-10.656,10.664c0,31.344-12.188,60.812-34.375,82.969
	C316.809,115.797,287.34,128,256.004,128c-31.344,0-60.797-12.203-82.969-34.367C150.879,71.477,138.676,42,138.676,10.664
	C138.676,4.773,133.895,0,128.004,0s-10.656,4.773-10.656,10.664c0,76.586,62.078,138.672,138.656,138.672
	c76.586,0,138.68-62.086,138.68-138.672C394.684,4.773,389.902,0,383.996,0z"/>
<path style="fill:#FC6E51;" d="M256.004,128c-106.031,0-192,85.961-192,192c0,106.031,85.969,192,192,192
	c106.055,0,191.992-85.969,191.992-192C447.996,213.961,362.059,128,256.004,128z M376.684,440.688
	c-15.688,15.672-33.938,27.969-54.25,36.562c-21.031,8.906-43.375,13.406-66.43,13.406c-23.047,0-45.391-4.5-66.422-13.406
	c-20.312-8.594-38.578-20.891-54.25-36.562c-15.688-15.688-28-33.938-36.594-54.266c-8.89-21.016-13.39-43.375-13.39-66.422
	c0-23.062,4.5-45.406,13.391-66.43c8.594-20.312,20.906-38.57,36.594-54.25c15.672-15.68,33.938-27.992,54.25-36.586
	c21.031-8.891,43.375-13.398,66.422-13.398c23.055,0,45.398,4.508,66.43,13.398c20.312,8.594,38.562,20.906,54.25,36.586
	s28,33.938,36.594,54.25c8.875,21.023,13.406,43.367,13.406,66.43c0,23.047-4.531,45.406-13.406,66.422
	C404.684,406.75,392.371,425,376.684,440.688z"/>
</svg>
