<?xml version="1.0" encoding="iso-8859-1"?>
<!-- Generator: Adobe Illustrator 19.0.0, SVG Export Plug-In . SVG Version: 6.00 Build 0)  -->
<svg version="1.1" id="Layer_1" xmlns="http://www.w3.org/2000/svg" xmlns:xlink="http://www.w3.org/1999/xlink" x="0px" y="0px"
	 viewBox="0 0 512.001 512.001" style="enable-background:new 0 0 512.001 512.001;" xml:space="preserve">
<g>
	<rect x="138.66" y="32.68" style="fill:#3BAFDA;" width="21.336" height="450.66"/>
	<rect x="352" y="31.06" style="fill:#3BAFDA;" width="21.328" height="446.66"/>
</g>
<g>
	<path style="fill:#4FC1E9;" d="M512,10.664C512,4.773,507.234,0,501.328,0c-0.844,0-1.672,0.086-2.469,0.273
		c-3.594,0.781-7.219,1.539-10.844,2.281c-68.859,14.094-139.75,21.234-210.688,21.234c-7.109,0-35.547,0-42.664,0
		c-70.938,0-141.82-7.141-210.688-21.234c-3.617-0.742-7.234-1.5-10.844-2.281C12.344,0.086,11.516,0,10.664,0
		C4.773,0,0,4.773,0,10.664c0,4.93,3.352,9.07,7.891,10.289c0.203,0.055,0.68,0.164,0.883,0.203
		c72.812,15.703,148.391,23.969,225.891,23.969c7.133,0,35.539,0,42.664,0c77.516,0,153.094-8.266,225.906-23.969
		c0.188-0.039,0.672-0.148,0.875-0.203C508.656,19.734,512,15.594,512,10.664z"/>
	<path style="fill:#4FC1E9;" d="M0,501.344C0,507.219,4.773,512,10.664,512c0.852,0,1.68-0.094,2.469-0.281
		c3.609-0.781,7.227-1.531,10.836-2.281c68.875-14.094,139.758-21.219,210.695-21.219c7.117,0,35.555,0,42.664,0
		c70.938,0,141.828,7.125,210.688,21.219c3.625,0.75,7.25,1.5,10.844,2.281c0.797,0.188,1.625,0.281,2.469,0.281
		c5.906,0,10.672-4.781,10.672-10.656c0-4.938-3.359-9.078-7.891-10.297c-0.203-0.047-0.688-0.172-0.875-0.203
		c-72.812-15.688-148.391-23.969-225.906-23.969c-7.125,0-35.531,0-42.664,0c-77.5,0-153.078,8.281-225.891,23.969
		c-0.203,0.031-0.68,0.156-0.883,0.203C3.352,492.266,0,496.406,0,501.344z"/>
</g>
</svg>
