<?xml version="1.0" encoding="iso-8859-1"?>
<!-- Generator: Adobe Illustrator 19.0.0, SVG Export Plug-In . SVG Version: 6.00 Build 0)  -->
<svg version="1.1" id="Layer_1" xmlns="http://www.w3.org/2000/svg" xmlns:xlink="http://www.w3.org/1999/xlink" x="0px" y="0px"
	 viewBox="0 0 512.009 512.009" style="enable-background:new 0 0 512.009 512.009;" xml:space="preserve">
<g>
	<path style="fill:#37BC9B;" d="M506.555,153.673C431.836,114.228,346.367,91.719,256,91.719
		c-69.453,0-135.828,13.188-196.75,37.203l10.719,18.727c59.242-22.961,121.742-34.602,186.031-34.602
		c69.586,0,137.086,13.625,200.602,40.5c13.469,5.695,26.734,11.992,39.719,18.844c1.5,0.797,3.203,1.242,5.016,1.242
		c5.891,0,10.672-4.773,10.672-10.664C512.008,158.978,509.805,155.501,506.555,153.673z"/>
	<path style="fill:#37BC9B;" d="M5.5,358.383c-0.016-0.016-0.039-0.031-0.055-0.031l0,0C5.461,358.352,5.484,358.367,5.5,358.383z"
		/>
	<path style="fill:#37BC9B;" d="M5.5,358.383L5.5,358.383C5.524,358.383,5.531,358.383,5.5,358.383z"/>
	<path style="fill:#37BC9B;" d="M5.445,358.352L5.445,358.352C5.414,358.32,5.43,358.336,5.445,358.352z"/>
	<path style="fill:#37BC9B;" d="M452.758,383.102l-10.719-18.734c-59.25,22.953-121.75,34.609-186.039,34.609
		c-69.586,0-137.086-13.625-200.609-40.5c-13.469-5.703-26.734-12-39.711-18.844c-1.492-0.797-3.203-1.25-5.016-1.25
		C4.773,338.383,0,343.164,0,349.039c0,4,2.195,7.469,5.445,9.312C80.164,397.789,165.633,420.289,256,420.289
		C325.445,420.289,391.82,407.102,452.758,383.102z"/>
</g>
<g>
	<path style="fill:#48CFAD;" d="M416.008,198.383c-53.031,0-96,42.984-96,96c0,53.031,42.969,96,96,96c53,0,96-42.969,96-96
		C512.008,241.368,469.008,198.383,416.008,198.383z M468.789,347.195c-14.094,14.094-32.844,21.844-52.781,21.844
		c-19.953,0-38.703-7.75-52.812-21.859c-14.094-14.109-21.859-32.859-21.859-52.797s7.766-38.695,21.859-52.797
		c14.109-14.102,32.859-21.867,52.812-21.867c19.938,0,38.688,7.766,52.781,21.867c14.109,14.102,21.875,32.859,21.875,52.797
		S482.899,333.07,468.789,347.195z"/>
	<path style="fill:#48CFAD;" d="M96,121.633c-53.016,0-96,42.977-96,96c0,53.016,42.984,96,96,96s96-42.984,96-96
		C192,164.609,149.016,121.633,96,121.633z M148.797,270.43c-14.102,14.109-32.852,21.859-52.797,21.859s-38.695-7.75-52.797-21.859
		c-14.102-14.102-21.867-32.852-21.867-52.797s7.766-38.695,21.867-52.797S76.055,142.969,96,142.969s38.695,7.766,52.797,21.867
		s21.867,32.852,21.867,52.797S162.899,256.328,148.797,270.43z"/>
</g>
</svg>
