<?xml version="1.0" encoding="iso-8859-1"?>
<!-- Generator: Adobe Illustrator 19.0.0, SVG Export Plug-In . SVG Version: 6.00 Build 0)  -->
<svg version="1.1" id="Layer_1" xmlns="http://www.w3.org/2000/svg" xmlns:xlink="http://www.w3.org/1999/xlink" x="0px" y="0px"
	 viewBox="0 0 512 512" style="enable-background:new 0 0 512 512;" xml:space="preserve">
<path style="fill:#DA4453;" d="M478.051,415.969c-5.875,0-10.656,4.781-10.656,10.656c0,35.312-28.719,64.031-64.031,64.031
	s-63.922-28.719-63.922-64.031c-1.625-14.281-2.453-28.719-2.453-43.281c0-50.844,9.969-100.141,29.594-146.555
	c4.562-10.766,9.625-21.352,15.203-31.688c8.484-18.398,13.297-39.008,13.297-60.609C395.082,64.695,330.395,0,250.582,0
	c-79.789,0-144.484,64.695-144.484,144.492c0,53.914,29.531,100.922,73.297,125.758v-25.242
	c-5.602-3.992-10.922-8.477-15.883-13.438c-23.258-23.258-36.07-54.18-36.07-87.078c0-32.891,12.812-63.82,36.07-87.078
	s54.188-36.07,87.07-36.07c32.906,0,63.828,12.812,87.094,36.07c23.25,23.258,36.062,54.188,36.062,87.078
	c0,17.82-3.781,35.062-10.922,50.828c-30.078,55.992-47.172,120.023-47.172,188.023c0,14.625,0.812,29.062,2.344,43.281
	C324.754,475.812,356.207,512,403.363,512s85.375-38.219,85.375-85.375C488.738,420.75,483.957,415.969,478.051,415.969z"/>
<path style="fill:#ED5565;" d="M119.301,223.875c-53.039,0-96.039,43-96.039,96.047s43,96.047,96.039,96.047
	c53.047,0,96.047-43,96.047-96.047S172.348,223.875,119.301,223.875z M172.121,372.75c-14.109,14.094-32.867,21.875-52.82,21.875
	c-19.945,0-38.711-7.781-52.82-21.875c-14.109-14.125-21.875-32.875-21.875-52.828s7.766-38.703,21.875-52.828
	c14.109-14.102,32.875-21.875,52.82-21.875c19.953,0,38.711,7.773,52.82,21.875c14.109,14.125,21.883,32.875,21.883,52.828
	S186.23,358.625,172.121,372.75z"/>
</svg>
