<?xml version="1.0" encoding="iso-8859-1"?>
<!-- Generator: Adobe Illustrator 19.0.0, SVG Export Plug-In . SVG Version: 6.00 Build 0)  -->
<svg version="1.1" id="Layer_1" xmlns="http://www.w3.org/2000/svg" xmlns:xlink="http://www.w3.org/1999/xlink" x="0px" y="0px"
	 viewBox="0 0 512 512" style="enable-background:new 0 0 512 512;" xml:space="preserve">
<path style="fill:#E9573F;" d="M432,102.156c-43.906,0-79.562,35.375-80,79.188h21.344C373.781,149.359,399.938,123.5,432,123.5
	s58.219,25.859,58.656,57.844h0.031c0,31.953-6.281,62.953-18.594,92.125c-11.938,28.188-29,53.516-50.75,75.25
	c-21.75,21.75-47.062,38.828-75.25,50.75c-22.25,9.406-45.562,15.438-69.562,17.688c-5.469,0.438-9.844,4.906-9.844,10.5
	c0,5.906,4.781,10.688,10.656,10.688C408.906,426.516,512,315.969,512,181.344C511.531,137.531,475.906,102.156,432,102.156z"/>
<path style="fill:#FC6E51;" d="M384,458.656c-5.875,0-10.656-4.781-10.656-10.656V43l-0.031-0.016
	c0.031-0.109,0.031-0.203,0.031-0.328c0-5.875-4.781-10.656-10.656-10.656c-69.281,0-129.469,38.844-160,95.938V43
	c0-5.891-4.781-11-10.688-11c-69.25,0-129.469,38.844-160,95.938V64c0-11.844-6.438-22.141-16-27.672
	c-1.562-0.922-3.375-1.438-5.312-1.438C4.781,34.891,0,39.656,0,45.562c0,3.953,2.188,7.406,5.375,9.25
	c3.156,1.844,5.312,5.266,5.312,9.188v149.344l0,0V416c0,5.891,4.781,10.656,10.656,10.656C27.25,426.656,32,421.891,32,416V213.344
	l0,0c0-21.625,4.25-42.562,12.562-62.281c8.062-19.062,19.625-36.156,34.312-50.875C93.562,85.5,110.688,73.953,129.75,65.906
	c16.438-6.969,33.75-11.062,51.594-12.219v159.656V416c0,5.891,4.781,10.656,10.656,10.656c5.906,0,10.688-4.766,10.688-10.656
	V213.344c0-21.625,4.219-42.562,12.562-62.281c8.062-19.062,19.594-36.156,34.281-50.875c14.719-14.688,31.812-26.234,50.875-34.281
	c16.438-6.969,33.75-11.062,51.594-12.219V448c0,17.672,14.344,32,32,32c5.906,0,10.688-4.781,10.688-10.656
	C394.688,463.438,389.906,458.656,384,458.656z M202.656,42.984c0-0.047,0-0.016,0,0.016V42.984z"/>
</svg>
