<?xml version="1.0" encoding="iso-8859-1"?>
<!-- Generator: Adobe Illustrator 19.0.0, SVG Export Plug-In . SVG Version: 6.00 Build 0)  -->
<svg version="1.1" id="Layer_1" xmlns="http://www.w3.org/2000/svg" xmlns:xlink="http://www.w3.org/1999/xlink" x="0px" y="0px"
	 viewBox="0 0 512.017 512.017" style="enable-background:new 0 0 512.017 512.017;" xml:space="preserve">
<path style="fill:#48CFAD;" d="M508.876,436.044l-30.156-30.156c0,0,0,0,0-0.016c-4.156-4.156-10.938-4.156-15.094,0
	c-4.156,4.172-4.156,10.922,0,15.094l0,0l11.969,11.953h-91.594c-5.875,0-10.656-4.781-10.656-10.656V38.591
	c0-5.891-4.781-11-10.656-11c-69.281,0-129.469,38.859-160,95.953V38.591c0-5.891-4.781-11-10.688-11
	c-69.25,0-129.469,38.859-160,95.953V59.591c0-11.844-6.406-22.172-15.969-27.703c-1.562-0.906-3.406-1.406-5.344-1.406
	C4.782,30.482,0,35.263,0,41.154c0,4.094,2.344,7.656,5.719,9.438c2.969,1.891,4.969,5.219,4.969,9v149.327v202.672
	c0,5.891,4.781,10.672,10.656,10.672c5.906,0,10.656-4.781,10.656-10.672V208.919c0-21.609,4.25-42.547,12.562-62.266
	c8.062-19.047,19.625-36.156,34.312-50.859s31.812-26.25,50.875-34.297c16.438-6.969,33.75-11.047,51.594-12.219v159.641v202.672
	c0,5.891,4.781,10.672,10.656,10.672c5.906,0,10.688-4.781,10.688-10.672V208.919c0-21.609,4.219-42.547,12.562-62.266
	c8.062-19.047,19.594-36.156,34.281-50.859c14.719-14.703,31.812-26.25,50.875-34.297c16.438-6.969,33.781-11.047,51.594-12.219
	v372.984c0,17.672,14.344,32,32,32h91.594l-11.969,11.953l0,0c-4.156,4.172-4.156,10.922,0,15.094
	c4.188,4.156,10.938,4.156,15.094,0l30.156-30.172C513.064,446.966,513.064,440.216,508.876,436.044z"/>
</svg>
