<?xml version="1.0" encoding="iso-8859-1"?>
<!-- Generator: Adobe Illustrator 19.0.0, SVG Export Plug-In . SVG Version: 6.00 Build 0)  -->
<svg version="1.1" id="Layer_1" xmlns="http://www.w3.org/2000/svg" xmlns:xlink="http://www.w3.org/1999/xlink" x="0px" y="0px"
	 viewBox="0 0 511.992 511.992" style="enable-background:new 0 0 511.992 511.992;" xml:space="preserve">
<path style="fill:#DA4453;" d="M501.336,0H223.992c-5.875,0-10.656,4.781-10.656,10.656c0,5.906,4.781,10.688,10.656,10.688h251.594
	L3.117,493.781c-4.156,4.172-4.156,10.938,0,15.094c4.188,4.156,10.938,4.156,15.094,0L490.68,36.406V288
	c0,5.891,4.75,10.656,10.656,10.656c5.875,0,10.656-4.766,10.656-10.656V10.656C511.992,4.781,507.211,0,501.336,0z"/>
<path style="fill:#ED5565;" d="M305.242,433.062L78.961,206.781c-1.938-1.938-4.594-3.125-7.562-3.125
	c-5.875,0-10.656,4.766-10.656,10.656c0,2.938,1.188,5.609,3.125,7.531l226.281,226.281c1.938,1.938,4.594,3.125,7.531,3.125
	c5.906,0,10.656-4.781,10.656-10.656C308.336,437.641,307.148,434.969,305.242,433.062z"/>
</svg>
