<?xml version="1.0" encoding="iso-8859-1"?>
<!-- Generator: Adobe Illustrator 19.0.0, SVG Export Plug-In . SVG Version: 6.00 Build 0)  -->
<svg version="1.1" id="Layer_1" xmlns="http://www.w3.org/2000/svg" xmlns:xlink="http://www.w3.org/1999/xlink" x="0px" y="0px"
	 viewBox="0 0 512 512" style="enable-background:new 0 0 512 512;" xml:space="preserve">
<path style="fill:#FC6E51;" d="M421.312,252.448c-34.781,0-57.687,18.391-71.75,36.383l-12.124-182.312
	c0-0.367-0.125-2.265-0.125-2.265c-2.438-26.821-24.969-47.844-52.406-47.844c-2.125,0-4.219,0.125-6.28,0.367
	c-8.032,0.781-15.781,2.523-23.094,5.156c-14,5.024-26.468,13.204-36.594,23.68c0,0-47.781,46.047-69.625,155.234
	C127.469,131.659,79.719,85.612,79.719,85.612h-0.031C62.25,67.55,37.75,56.308,10.656,56.308C4.782,56.308,0,61.082,0,66.972
	s4.782,10.672,10.656,10.672c20.438,0,39.5,8.093,53.688,22.796l1.781,1.828c4.281,4.688,19.188,22.234,34.375,54.985
	c11,23.765,19.782,50.414,26.094,79.21c6.656,30.195,10.562,62.797,11.719,97.173l0.312,21.102c0,5.891,4.781,10.664,10.657,10.664
	c5.812,0,10.531-4.649,10.656-10.431l0.407-21.335c1.125-34.376,5.062-66.978,11.688-97.173
	c6.343-28.797,15.125-55.445,26.125-79.21c15.157-32.75,30.062-50.297,34.344-54.985l1.782-1.828
	C246.781,87.519,263,79.699,280.626,77.995c1.405-0.187,2.812-0.258,4.28-0.258c16.125,0,29.406,12.25,31.094,27.938l0.219,3.079
	l14.125,212.657c-27.312,50.679-65.969,90.608-110.688,113.929c-3.406,1.57-5.875,4.883-6.188,8.883
	c-0.437,5.875,3.969,10.992,9.845,11.438c2.062,0.156,4.031-0.297,5.719-1.188c43.343-22.5,81.375-59.094,109.968-105.391
	c10.25,20.07,32.875,44.375,82.312,44.375c50.095,0,90.688-31.562,90.688-70.499C512,284.019,471.407,252.448,421.312,252.448z
	 M472.344,355.972c-13.406,10.422-31.531,16.156-51.031,16.156c-26.781,0-46.438-8.328-58.438-24.766
	c-6.156-8.461-8.969-17.234-10.156-22.281c0.5-1.219,1.156-2.664,1.938-4.258c0.125-0.242,0.219-0.484,0.344-0.727
	c2.75-5.539,6.97-12.844,12.845-20c14.405-17.46,32.405-26.312,53.468-26.312c19.5,0,37.625,5.735,51.031,16.156
	c11.812,9.188,18.312,20.915,18.312,33.017C490.656,335.058,484.156,346.784,472.344,355.972z"/>
</svg>
