<?xml version="1.0" encoding="iso-8859-1"?>
<!-- Generator: Adobe Illustrator 19.0.0, SVG Export Plug-In . SVG Version: 6.00 Build 0)  -->
<svg version="1.1" id="Layer_1" xmlns="http://www.w3.org/2000/svg" xmlns:xlink="http://www.w3.org/1999/xlink" x="0px" y="0px"
	 viewBox="0 0 512 512" style="enable-background:new 0 0 512 512;" xml:space="preserve">
<path style="fill:#37BC9B;" d="M480.016,256h-448c-5.906,0-10.688,4.773-10.688,10.664s4.781,10.672,10.688,10.672h448
	c5.875,0,10.656-4.781,10.656-10.672S485.891,256,480.016,256z"/>
<g>
	<path style="fill:#48CFAD;" d="M126.547,5.641C124.766,2.289,121.203,0,117.141,0c-5.875,0-10.656,4.773-10.656,10.664
		c0,2.039,0.562,3.938,1.562,5.555c9.125,16.133,17.281,32.789,24.469,49.781c25.469,60.164,38.344,124.094,38.344,190
		s-12.875,129.836-38.344,190c-7.188,16.992-15.344,33.648-24.469,49.773c-1,1.625-1.562,3.523-1.562,5.562
		c0,5.891,4.781,10.664,10.656,10.664c4.062,0,7.625-2.289,9.406-5.641c41.812-73.945,65.656-159.367,65.656-250.359
		S168.359,79.586,126.547,5.641z"/>
	<path style="fill:#48CFAD;" d="M385.453,506.359c1.812,3.352,5.344,5.641,9.406,5.641c5.906,0,10.688-4.773,10.688-10.664
		c0-2.039-0.594-3.938-1.594-5.562c-9.094-16.125-17.281-32.781-24.469-49.773c-25.438-60.164-38.344-124.094-38.344-190
		s12.906-129.836,38.344-190c7.188-16.992,15.375-33.648,24.469-49.781c1-1.617,1.594-3.516,1.594-5.555
		C405.547,4.773,400.766,0,394.859,0c-4.062,0-7.594,2.289-9.406,5.641C343.672,79.586,319.797,165.008,319.797,256
		S343.672,432.414,385.453,506.359z"/>
</g>
</svg>
